<svg xmlns="http://www.w3.org/2000/svg" xmlns:xlink="http://www.w3.org/1999/xlink" width="1024" zoomAndPan="magnify" viewBox="0 0 768 767.999994" height="1024" preserveAspectRatio="xMidYMid meet" version="1.0"><path fill="#ffffff" d="M 386.117188 0 C 280.332031 0 267.636719 0 227.4375 2.117188 C 187.238281 2.117188 157.621094 10.578125 134.347656 19.042969 C 108.957031 29.621094 87.800781 42.3125 66.644531 63.472656 C 45.488281 84.628906 32.792969 105.785156 22.214844 131.171875 C 11.636719 156.5625 5.289062 184.066406 5.289062 224.265625 C 1.058594 268.695312 1.058594 281.386719 1.058594 385.058594 C 1.058594 490.84375 1.058594 503.539062 3.171875 543.734375 C 3.171875 583.933594 11.636719 613.554688 20.097656 636.828125 C 30.675781 662.214844 43.371094 683.371094 64.527344 704.527344 C 85.6875 725.6875 106.84375 738.378906 132.230469 748.957031 C 157.621094 759.539062 185.125 765.882812 225.324219 765.882812 C 265.519531 765.882812 280.332031 768 384 768 C 487.667969 768 502.480469 768 542.675781 765.882812 C 582.875 765.882812 612.496094 757.421875 635.769531 748.957031 C 661.15625 738.378906 682.3125 725.6875 703.472656 704.527344 C 724.628906 683.371094 737.324219 662.214844 747.902344 636.828125 C 756.363281 611.4375 764.828125 583.933594 764.828125 543.734375 C 764.828125 503.539062 766.941406 488.726562 766.941406 385.058594 C 766.941406 279.273438 766.941406 266.578125 764.828125 226.378906 C 764.828125 186.183594 756.363281 156.5625 747.902344 133.289062 C 737.324219 107.902344 724.628906 86.742188 703.472656 65.585938 C 682.3125 44.429688 661.15625 31.734375 635.769531 21.15625 C 610.378906 10.578125 582.875 4.230469 542.675781 4.230469 C 504.59375 0 491.902344 0 386.117188 0 Z M 352.265625 69.816406 C 362.84375 69.816406 373.421875 69.816406 386.117188 69.816406 C 489.785156 69.816406 500.363281 69.816406 542.675781 71.933594 C 580.761719 71.933594 599.800781 80.398438 614.613281 84.628906 C 633.652344 90.976562 646.347656 99.4375 659.042969 114.246094 C 671.734375 126.941406 680.199219 139.636719 688.660156 158.675781 C 692.890625 171.371094 699.238281 192.527344 701.355469 230.613281 C 701.355469 270.808594 703.472656 283.503906 703.472656 387.171875 C 703.472656 490.84375 703.472656 501.421875 701.355469 543.734375 C 701.355469 581.816406 692.890625 600.859375 688.660156 615.667969 C 682.3125 634.710938 673.851562 647.40625 659.042969 660.097656 C 646.347656 672.792969 633.652344 681.257812 614.613281 689.71875 C 601.917969 696.066406 580.761719 700.296875 542.675781 702.414062 C 502.480469 702.414062 489.785156 704.527344 386.117188 704.527344 C 282.445312 704.527344 271.867188 704.527344 229.554688 702.414062 C 191.472656 702.414062 172.429688 693.949219 157.621094 689.71875 C 138.578125 683.371094 125.882812 674.910156 113.191406 660.097656 C 100.496094 647.40625 92.03125 634.710938 83.570312 615.667969 C 79.339844 602.976562 72.992188 581.816406 70.875 543.734375 C 70.875 503.539062 68.761719 490.84375 68.761719 387.171875 C 68.761719 283.503906 68.761719 272.925781 70.875 230.613281 C 70.875 192.527344 79.339844 173.488281 83.570312 158.675781 C 89.917969 139.636719 98.378906 126.941406 113.191406 114.246094 C 125.882812 101.554688 138.578125 93.089844 157.621094 84.628906 C 170.3125 78.28125 191.472656 74.050781 229.554688 71.933594 C 265.519531 71.933594 278.214844 71.933594 350.148438 69.816406 Z M 386.117188 188.296875 C 276.097656 188.296875 187.238281 277.15625 187.238281 387.171875 C 187.238281 497.191406 276.097656 586.050781 386.117188 586.050781 C 496.132812 586.050781 584.992188 497.191406 584.992188 387.171875 C 584.992188 277.15625 496.132812 188.296875 386.117188 188.296875 Z M 386.117188 258.117188 C 458.050781 258.117188 515.171875 315.238281 515.171875 387.171875 C 515.171875 459.109375 458.050781 516.230469 386.117188 516.230469 C 314.183594 516.230469 257.058594 459.109375 257.058594 387.171875 C 257.058594 315.238281 314.183594 258.117188 386.117188 258.117188 Z M 386.117188 258.117188 " fill-opacity="1" fill-rule="nonzero"/></svg>