<svg xmlns="http://www.w3.org/2000/svg" xmlns:xlink="http://www.w3.org/1999/xlink" width="1024" zoomAndPan="magnify" viewBox="0 0 768 767.999994" height="1024" preserveAspectRatio="xMidYMid meet" version="1.0"><path fill="#ffffff" d="M 383.566406 0.699219 C 170.945312 1.414062 1.011719 174.371094 3.789062 387.066406 C 3.914062 397.75 4.492188 408.414062 5.515625 419.050781 C 6.542969 429.6875 8.015625 440.261719 9.933594 450.777344 C 11.851562 461.289062 14.210938 471.703125 17.007812 482.015625 C 19.804688 492.332031 23.03125 502.507812 26.6875 512.550781 C 30.34375 522.589844 34.417969 532.460938 38.910156 542.15625 C 43.398438 551.851562 48.289062 561.34375 53.578125 570.628906 C 58.871094 579.910156 64.542969 588.957031 70.597656 597.761719 C 76.652344 606.566406 83.066406 615.097656 89.839844 623.363281 C 90.90625 624.667969 91.867188 626.042969 92.722656 627.492188 C 93.582031 628.941406 94.328125 630.445312 94.960938 632.003906 C 95.597656 633.566406 96.109375 635.164062 96.503906 636.800781 C 96.898438 638.4375 97.167969 640.09375 97.316406 641.773438 C 97.464844 643.449219 97.484375 645.128906 97.378906 646.808594 C 97.277344 648.488281 97.046875 650.152344 96.695312 651.800781 C 96.339844 653.445312 95.867188 655.058594 95.273438 656.632812 C 94.679688 658.207031 93.96875 659.730469 93.148438 661.199219 L 60.316406 720.058594 C 51.214844 736.375 66.046875 755.667969 84.148438 751.058594 L 195.34375 722.734375 C 197.269531 722.246094 199.21875 721.929688 201.199219 721.785156 C 203.179688 721.640625 205.15625 721.667969 207.132812 721.871094 C 209.105469 722.074219 211.046875 722.445312 212.957031 722.992188 C 214.867188 723.535156 216.714844 724.242188 218.5 725.113281 C 230.757812 731.070312 243.300781 736.351562 256.128906 740.957031 C 268.953125 745.5625 281.992188 749.464844 295.242188 752.664062 C 308.488281 755.863281 321.871094 758.339844 335.386719 760.09375 C 348.898438 761.851562 362.46875 762.875 376.09375 763.167969 C 589.867188 768.003906 765.332031 597.117188 765.996094 383.199219 C 766.660156 171.625 595.0625 -0.0117188 383.566406 0.699219 Z M 384.878906 716.285156 C 379.410156 716.285156 373.945312 716.152344 368.480469 715.882812 C 363.019531 715.613281 357.566406 715.210938 352.125 714.675781 C 346.683594 714.140625 341.257812 713.46875 335.847656 712.667969 C 330.4375 711.863281 325.050781 710.929688 319.6875 709.863281 C 314.324219 708.796875 308.988281 707.597656 303.683594 706.269531 C 298.378906 704.9375 293.109375 703.480469 287.878906 701.890625 C 282.644531 700.304688 277.453125 698.589844 272.304688 696.746094 C 267.15625 694.902344 262.054688 692.933594 257 690.839844 C 251.949219 688.746094 246.953125 686.53125 242.007812 684.191406 C 237.0625 681.851562 232.179688 679.394531 227.359375 676.8125 C 222.535156 674.234375 217.777344 671.539062 213.085938 668.726562 C 208.394531 665.914062 203.777344 662.988281 199.230469 659.949219 C 194.683594 656.90625 190.214844 653.757812 185.820312 650.5 C 181.429688 647.242188 177.117188 643.875 172.890625 640.40625 C 168.664062 636.933594 164.523438 633.359375 160.472656 629.6875 C 156.417969 626.011719 152.460938 622.242188 148.59375 618.371094 C 144.726562 614.503906 140.957031 610.542969 137.28125 606.488281 C 133.609375 602.433594 130.039062 598.292969 126.570312 594.066406 C 123.101562 589.835938 119.738281 585.523438 116.480469 581.128906 C 113.222656 576.734375 110.074219 572.261719 107.035156 567.714844 C 103.996094 563.164062 101.070312 558.542969 98.261719 553.851562 C 95.449219 549.15625 92.753906 544.398438 90.175781 539.574219 C 87.597656 534.75 85.140625 529.863281 82.800781 524.917969 C 80.464844 519.972656 78.25 514.972656 76.15625 509.917969 C 74.0625 504.863281 72.09375 499.757812 70.253906 494.609375 C 68.410156 489.457031 66.695312 484.261719 65.109375 479.027344 C 63.519531 473.792969 62.0625 468.519531 60.734375 463.210938 C 59.40625 457.90625 58.207031 452.570312 57.140625 447.203125 C 56.074219 441.835938 55.136719 436.449219 54.335938 431.035156 C 53.535156 425.625 52.863281 420.195312 52.328125 414.75 C 51.792969 409.304688 51.390625 403.851562 51.121094 398.386719 C 50.851562 392.921875 50.71875 387.453125 50.71875 381.984375 C 50.71875 197.355469 200.332031 47.679688 384.878906 47.679688 C 568.714844 47.679688 717.875 196.195312 719.03125 379.832031 C 720.191406 564.09375 569.066406 716.285156 384.878906 716.285156 Z M 384.878906 716.285156 " fill-opacity="1" fill-rule="nonzero"/><path fill="#ffffff" d="M 325.15625 219.457031 L 325.308594 219.761719 L 345.238281 259.304688 C 345.773438 260.367188 346.265625 261.449219 346.714844 262.550781 C 347.164062 263.652344 347.566406 264.769531 347.921875 265.902344 C 348.28125 267.035156 348.59375 268.183594 348.859375 269.34375 C 349.125 270.5 349.34375 271.667969 349.515625 272.84375 C 349.6875 274.023438 349.808594 275.203125 349.886719 276.390625 C 349.964844 277.574219 349.992188 278.765625 349.972656 279.953125 C 349.953125 281.140625 349.886719 282.328125 349.773438 283.511719 C 349.65625 284.695312 349.496094 285.871094 349.285156 287.042969 C 349.078125 288.210938 348.820312 289.371094 348.519531 290.523438 C 348.214844 291.671875 347.867188 292.808594 347.472656 293.929688 C 347.078125 295.050781 346.640625 296.15625 346.15625 297.242188 C 345.675781 298.328125 345.148438 299.390625 344.578125 300.4375 C 344.011719 301.480469 343.398438 302.5 342.75 303.492188 C 342.097656 304.488281 341.410156 305.457031 340.679688 306.394531 C 339.949219 307.335938 339.1875 308.242188 338.382812 309.121094 C 337.582031 309.996094 336.746094 310.839844 335.875 311.652344 C 335.011719 312.457031 334.179688 313.292969 333.378906 314.164062 C 332.578125 315.035156 331.816406 315.9375 331.089844 316.867188 C 330.363281 317.800781 329.675781 318.761719 329.027344 319.746094 C 328.375 320.734375 327.769531 321.746094 327.199219 322.78125 C 326.628906 323.820312 326.105469 324.875 325.621094 325.953125 C 325.136719 327.03125 324.699219 328.128906 324.300781 329.242188 C 323.90625 330.355469 323.554688 331.484375 323.25 332.625 C 322.945312 333.769531 322.6875 334.921875 322.472656 336.082031 C 322.261719 337.246094 322.09375 338.414062 321.976562 339.589844 C 321.855469 340.765625 321.785156 341.945312 321.757812 343.128906 C 321.734375 344.308594 321.757812 345.488281 321.828125 346.671875 C 321.898438 347.851562 322.015625 349.023438 322.179688 350.195312 C 322.34375 351.367188 322.554688 352.527344 322.8125 353.683594 C 323.070312 354.835938 323.375 355.976562 323.722656 357.105469 C 324.070312 358.234375 324.464844 359.347656 324.90625 360.445312 C 325.34375 361.542969 325.824219 362.621094 326.347656 363.679688 C 338.3125 387.714844 359.042969 420.847656 390.675781 444.75 C 392.4375 446.089844 394.289062 447.289062 396.230469 448.351562 C 398.171875 449.414062 400.183594 450.324219 402.261719 451.085938 C 404.339844 451.847656 406.464844 452.449219 408.632812 452.890625 C 410.800781 453.335938 412.992188 453.613281 415.199219 453.730469 C 417.410156 453.84375 419.617188 453.796875 421.820312 453.582031 C 424.023438 453.367188 426.199219 452.988281 428.34375 452.449219 C 430.492188 451.910156 432.585938 451.214844 434.628906 450.359375 C 436.667969 449.507812 438.636719 448.507812 440.53125 447.359375 L 453.363281 439.542969 C 454.800781 438.671875 456.277344 437.882812 457.804688 437.175781 C 459.328125 436.472656 460.886719 435.855469 462.480469 435.328125 C 464.074219 434.800781 465.695312 434.367188 467.339844 434.023438 C 468.984375 433.679688 470.640625 433.433594 472.3125 433.277344 C 473.984375 433.125 475.660156 433.066406 477.339844 433.101562 C 479.019531 433.136719 480.691406 433.269531 482.355469 433.496094 C 484.019531 433.722656 485.664062 434.042969 487.289062 434.457031 C 488.917969 434.871094 490.515625 435.378906 492.085938 435.976562 L 543.101562 455.378906 C 544.457031 455.894531 545.785156 456.476562 547.082031 457.121094 C 548.378906 457.769531 549.644531 458.476562 550.871094 459.246094 C 552.101562 460.015625 553.289062 460.84375 554.4375 461.730469 C 555.582031 462.617188 556.683594 463.558594 557.738281 464.554688 C 558.792969 465.546875 559.796875 466.59375 560.75 467.6875 C 561.699219 468.78125 562.597656 469.917969 563.4375 471.097656 C 564.277344 472.28125 565.058594 473.5 565.777344 474.757812 C 566.5 476.015625 567.15625 477.308594 567.75 478.628906 C 568.34375 479.953125 568.871094 481.300781 569.332031 482.675781 C 569.796875 484.050781 570.1875 485.445312 570.511719 486.859375 C 570.835938 488.273438 571.089844 489.699219 571.277344 491.136719 C 571.460938 492.574219 571.574219 494.019531 571.617188 495.46875 C 571.660156 496.917969 571.628906 498.367188 571.53125 499.8125 C 571.429688 501.261719 571.261719 502.699219 571.019531 504.128906 C 570.777344 505.558594 570.46875 506.972656 570.089844 508.375 C 569.707031 509.773438 569.261719 511.152344 568.746094 512.507812 C 568.148438 514.066406 567.46875 515.585938 566.707031 517.070312 L 552.570312 544.484375 C 552 545.589844 551.382812 546.671875 550.71875 547.726562 C 550.058594 548.78125 549.351562 549.804688 548.601562 550.800781 C 547.855469 551.792969 547.066406 552.757812 546.234375 553.683594 C 545.40625 554.613281 544.539062 555.503906 543.632812 556.359375 C 542.726562 557.214844 541.789062 558.03125 540.816406 558.804688 C 539.839844 559.582031 538.835938 560.316406 537.800781 561.007812 C 536.765625 561.699219 535.703125 562.34375 534.613281 562.945312 C 533.523438 563.546875 532.410156 564.101562 531.273438 564.609375 C 530.136719 565.117188 528.980469 565.578125 527.804688 565.988281 C 526.628906 566.398438 525.4375 566.757812 524.234375 567.066406 C 523.027344 567.375 521.808594 567.636719 520.582031 567.84375 C 519.355469 568.050781 518.121094 568.203125 516.878906 568.308594 C 515.640625 568.410156 514.398438 568.460938 513.152344 568.457031 C 511.90625 568.457031 510.664062 568.402344 509.425781 568.296875 C 508.183594 568.1875 506.949219 568.03125 505.722656 567.820312 C 504.496094 567.609375 503.28125 567.347656 502.074219 567.035156 C 421.949219 546.292969 230.988281 474.207031 215.605469 256.21875 C 215.453125 254.066406 215.457031 251.917969 215.617188 249.765625 C 215.78125 247.613281 216.097656 245.488281 216.570312 243.382812 C 217.042969 241.277344 217.664062 239.21875 218.4375 237.203125 C 219.210938 235.191406 220.125 233.246094 221.183594 231.363281 C 222.242188 229.484375 223.429688 227.691406 224.75 225.984375 C 226.066406 224.28125 227.503906 222.679688 229.054688 221.183594 C 230.609375 219.683594 232.261719 218.308594 234.015625 217.054688 C 235.769531 215.800781 237.605469 214.679688 239.523438 213.691406 L 265.542969 200.320312 C 266.832031 199.65625 268.152344 199.058594 269.5 198.523438 C 270.847656 197.992188 272.21875 197.523438 273.613281 197.125 C 275.007812 196.726562 276.417969 196.398438 277.84375 196.136719 C 279.269531 195.878906 280.707031 195.6875 282.152344 195.570312 C 283.597656 195.449219 285.042969 195.402344 286.492188 195.425781 C 287.941406 195.449219 289.386719 195.542969 290.828125 195.707031 C 292.269531 195.871094 293.695312 196.109375 295.113281 196.414062 C 296.53125 196.71875 297.929688 197.09375 299.3125 197.535156 C 300.691406 197.980469 302.046875 198.488281 303.378906 199.066406 C 304.707031 199.640625 306.007812 200.28125 307.273438 200.984375 C 308.542969 201.691406 309.773438 202.453125 310.964844 203.28125 C 312.15625 204.105469 313.308594 204.984375 314.414062 205.925781 C 315.519531 206.863281 316.574219 207.851562 317.585938 208.894531 C 318.59375 209.9375 319.546875 211.023438 320.449219 212.160156 C 321.351562 213.296875 322.195312 214.472656 322.980469 215.691406 C 323.769531 216.910156 324.492188 218.164062 325.15625 219.457031 Z M 325.15625 219.457031 " fill-opacity="1" fill-rule="nonzero"/></svg>